HIERARCHY
ROOT RootJoint
{
    OFFSET   0.000000   0.000000   0.000000
    CHANNELS 6 Xposition Yposition Zposition Xrotation Yrotation Zrotation
    JOINT pelvis_lowerback
    {
        OFFSET   0.000000   0.093605   0.000000
        CHANNELS 3 Xrotation Yrotation Zrotation
        JOINT lowerback_torso
        {
            OFFSET   0.000000   0.100000   0.000000
            CHANNELS 3 Xrotation Yrotation Zrotation
            JOINT torso_head
            {
                OFFSET   0.000000   0.282350   0.000000
                CHANNELS 3 Xrotation Yrotation Zrotation
                End Site
                {
                    OFFSET   0.000000   0.192650   0.000000
                }
            }
            JOINT rTorso_Clavicle
            {
                OFFSET  -0.001000   0.157500   0.000000
                CHANNELS 3 Xrotation Yrotation Zrotation
                JOINT rShoulder
                {
                    OFFSET  -0.117647   0.000000   0.000000
                    CHANNELS 3 Xrotation Yrotation Zrotation
                    JOINT rElbow
                    {
                        OFFSET  -0.245000   0.000000   0.000000
                        CHANNELS 3 Xrotation Yrotation Zrotation
                        JOINT rWrist
                        {
                            OFFSET  -0.240000   0.000000   0.000000
                            CHANNELS 3 Xrotation Yrotation Zrotation
                            End Site
                            {
                                OFFSET  -0.116353  -0.002500   0.000000
                            }
                        }
                    }
                }
            }
            JOINT lTorso_Clavicle
            {
                OFFSET   0.001000   0.157500   0.000000
                CHANNELS 3 Xrotation Yrotation Zrotation
                JOINT lShoulder
                {
                    OFFSET   0.117647   0.000000   0.000000
                    CHANNELS 3 Xrotation Yrotation Zrotation
                    JOINT lElbow
                    {
                        OFFSET   0.245000   0.000000   0.000000
                        CHANNELS 3 Xrotation Yrotation Zrotation
                        JOINT lWrist
                        {
                            OFFSET   0.240000   0.000000   0.000000
                            CHANNELS 3 Xrotation Yrotation Zrotation
                            End Site
                            {
                                OFFSET   0.116353  -0.002500   0.000000
                            }
                        }
                    }
                }
            }
        }
    }
    JOINT rHip
    {
        OFFSET  -0.100000  -0.051395   0.000000
        CHANNELS 3 Xrotation Yrotation Zrotation
        JOINT rKnee
        {
            OFFSET   0.000000  -0.410000   0.000000
            CHANNELS 3 Xrotation Yrotation Zrotation
            JOINT rAnkle
            {
                OFFSET   0.000000  -0.390000   0.000000
                CHANNELS 3 Xrotation Yrotation Zrotation
                JOINT rToeJoint
                {
                    OFFSET   0.000000  -0.050000   0.130000
                    CHANNELS 3 Xrotation Yrotation Zrotation
                    End Site
                    {
                        OFFSET  -0.010000   0.002000   0.060000
                    }
                }
            }
        }
    }
    JOINT lHip
    {
        OFFSET   0.100000  -0.051395   0.000000
        CHANNELS 3 Xrotation Yrotation Zrotation
        JOINT lKnee
        {
            OFFSET   0.000000  -0.410000   0.000000
            CHANNELS 3 Xrotation Yrotation Zrotation
            JOINT lAnkle
            {
                OFFSET   0.000000  -0.390000   0.000000
                CHANNELS 3 Xrotation Yrotation Zrotation
                JOINT lToeJoint
                {
                    OFFSET   0.000000  -0.050000   0.130000
                    CHANNELS 3 Xrotation Yrotation Zrotation
                    End Site
                    {
                        OFFSET   0.010000   0.002000   0.060000
                    }
                }
            }
        }
    }
}
MOTION
Frames: 7
Frame Time:   0.008333
 -2.464178   0.763651   4.135044  -7.882982 -24.576521  -2.462445  61.773025  -0.053726  -4.939417   2.407257   0.030307  -3.918285  -8.378731   1.412655  -6.704744  -6.981409  24.762241   7.159318 -21.318938   4.409021  31.270386  -0.000356  71.018442   0.000391  -0.793454   4.042299 -14.253817  -6.555799 -21.228471  -7.321084 -15.854954   1.480559 -28.276520  -0.000681 -71.999613  -0.000560  -2.079041  -5.097167  20.360948 -29.863162  -1.377493 -21.864270  78.616974   0.000888   0.000335 -13.242570  -8.514831   0.784212 -38.172407   0.000689  -0.000697 -40.626631   3.640922  18.606641  59.105761   0.000552   0.001174 -11.352388   2.032048   0.224924   1.662343  -0.000016   0.000000
 -2.464168   0.765271   4.135715  -7.949202 -24.703535  -2.502579  61.532955  -0.005520  -4.982295   2.438557   0.077057  -3.975836  -8.410650   1.496795  -6.681081  -6.919780  24.629275   7.169856 -20.955345   4.482506  31.374165  -0.000199  71.042999   0.000224  -0.740442   3.969895 -14.262253  -6.514781 -21.071851  -7.350582 -15.773078   1.631723 -28.452093   0.000154 -71.872432   0.000397  -2.121464  -5.104940  20.422924 -29.572608  -1.434462 -21.792959  78.183583   0.000940   0.000359 -13.333885  -8.568351   0.714006 -37.716609   0.000693  -0.000883 -40.265887   3.697249  18.581589  58.758439   0.000622   0.001405 -11.283415   2.193551   0.166290   1.656378  -0.000015   0.000000
 -2.464162   0.767094   4.136391  -7.984742 -24.832143  -2.533545  61.273422   0.046561  -5.024998   2.468700   0.123385  -4.035836  -8.440623   1.576452  -6.658578  -6.844727  24.508767   7.190039 -20.601292   4.555372  31.489288  -0.000040  71.072526   0.000064  -0.682227   3.929657 -14.197893  -6.469261 -20.926960  -7.393084 -15.688950   1.775699 -28.629669   0.000714 -71.748266   0.001077  -2.175934  -5.078625  20.468365 -29.292102  -1.501547 -21.713850  77.702664   0.001018   0.000375 -13.391316  -8.620674   0.645281 -37.282696   0.000665  -0.001017 -39.905155   3.765120  18.554713  58.354323   0.000688   0.001668 -11.190127   2.354476   0.120719   1.652242  -0.000012   0.000000
 -2.464151   0.768990   4.137075  -8.000474 -24.962056  -2.559274  61.001786   0.101505  -5.066819   2.490148   0.170359  -4.094739  -8.469142   1.650972  -6.637639  -6.766111  24.396422   7.215179 -20.263934   4.623679  31.605138   0.000077  71.101289  -0.000051  -0.624814   3.898558 -14.098672  -6.420148 -20.788484  -7.440398 -15.604047   1.912900 -28.803469   0.001091 -71.631942   0.001543  -2.232620  -5.042648  20.495664 -29.022992  -1.574154 -21.632851  77.201098   0.001101   0.000401 -13.431911  -8.668366   0.578146 -36.864337   0.000624  -0.001114 -39.553540   3.839514  18.529240  57.928686   0.000732   0.001899 -11.087387   2.512422   0.083722   1.649126  -0.000010   0.000000
 -2.464130   0.770881   4.137770  -8.004819 -25.091238  -2.581907  60.723981   0.157841  -5.106647   2.500758   0.217322  -4.150940  -8.496620   1.720658  -6.617970  -6.688444  24.290151   7.241024 -19.945735   4.687205  31.716629   0.000149  71.128619  -0.000122  -0.569561   3.870280 -13.986896  -6.369973 -20.655342  -7.487791 -15.520749   2.043426 -28.969580   0.001356 -71.523341   0.001860  -2.288598  -5.004465  20.512596 -28.764731  -1.648106 -21.553627  76.696918   0.001168   0.000436 -13.462143  -8.710900   0.512885 -36.464331   0.000580  -0.001175 -39.214611   3.917107  18.505507  57.502080   0.000750   0.002071 -10.983529   2.665468   0.052169   1.646441  -0.000009   0.000000
 -2.464099   0.772721   4.138472  -8.003235 -25.217572  -2.602613  60.444310   0.214274  -5.143759   2.500203   0.263479  -4.203557  -8.523198   1.785810  -6.599382  -6.614152  24.189142   7.265323 -19.647463   4.746348  31.821388   0.000183  71.154532  -0.000157  -0.516417   3.844159 -13.873775  -6.320761 -20.527676  -7.532638 -15.440796   2.167023 -29.125947   0.001547 -71.422079   0.002072  -2.342842  -4.966663  20.525413 -28.516703  -1.720768 -21.478262  76.201631   0.001207   0.000476 -13.485351  -8.748827   0.449697 -36.085416   0.000540  -0.001199 -38.890172   3.995643  18.483225  57.086534   0.000742   0.002174 -10.883211   2.812091   0.024126   1.643835  -0.000007   0.000000
 -2.464058   0.774484   4.139178  -7.999111 -25.339431  -2.622043  60.165933   0.269841  -5.177852   2.489025   0.308205  -4.252201  -8.548941   1.846712  -6.581778  -6.544504  24.093174   7.287079 -19.368983   4.801620  31.918512   0.000189  71.179153  -0.000165  -0.465104   3.820647 -13.764868  -6.273884 -20.405965  -7.573631 -15.365267   2.283396 -29.271750   0.001684 -71.327808   0.002203  -2.394791  -4.930750  20.537823 -28.278465  -1.790632 -21.407850  75.722310   0.001214   0.000512 -13.503551  -8.782889   0.388743 -35.729089   0.000506  -0.001192 -38.581090   4.073587  18.462040  56.688868   0.000715   0.002210 -10.788930   2.951297  -0.001603   1.641107  -0.000006   0.000000
